<svg width="137" height="80" viewBox="0 0 137 80" fill="none" xmlns="http://www.w3.org/2000/svg">
<path d="M136.389 40C136.389 41.2235 135.946 42.7679 135.051 44.5565C134.16 46.338 132.838 48.3278 131.123 50.4325C127.692 54.6414 122.716 59.2777 116.555 63.5889C104.231 72.2129 87.218 79.5 68.4444 79.5C49.6709 79.5 32.6579 72.2129 20.3336 63.5889C14.1725 59.2777 9.19642 54.6414 5.76629 50.4325C4.05105 48.3278 2.7289 46.338 1.83772 44.5565C0.943013 42.7679 0.5 41.2235 0.5 40C0.5 38.7765 0.943013 37.2321 1.83772 35.4435C2.7289 33.662 4.05105 31.6722 5.76629 29.5675C9.19642 25.3586 14.1725 20.7223 20.3336 16.4111C32.6579 7.7871 49.6709 0.5 68.4444 0.5C87.218 0.5 104.231 7.7871 116.555 16.4111C122.716 20.7223 127.692 25.3586 131.123 29.5675C132.838 31.6722 134.16 33.662 135.051 35.4435C135.946 37.2321 136.389 38.7765 136.389 40Z" stroke="black"/>
<path d="M83.1029 54.0157C75.3141 61.8045 62.6859 61.8045 54.8972 54.0157C47.1084 46.2269 47.1084 33.5988 54.8971 25.81C62.6859 18.0212 75.3141 18.0212 83.1029 25.81C90.8916 33.5988 90.8916 46.2269 83.1029 54.0157Z" fill="url(#paint0_linear)" stroke="black"/>
<path d="M77.1783 31.6784V36.3123H72.5445" stroke="white" stroke-width="2"/>
<path d="M77.1253 40.4029C76.9835 42.3598 76.1645 44.2768 74.6683 45.773C71.3627 49.0786 66.0032 49.0786 62.6976 45.773C59.392 42.4674 59.392 37.1079 62.6976 33.8023C66.0032 30.4967 71.3627 30.4967 74.6683 33.8023L76.5917 35.7256" stroke="white" stroke-width="2"/>
<defs>
<linearGradient id="paint0_linear" x1="98" y1="40" x2="68.2463" y2="11.0098" gradientUnits="userSpaceOnUse">
<stop stop-color="#FF0000"/>
<stop offset="1" stop-color="#0038C6"/>
</linearGradient>
</defs>
</svg>
