<svg width="85" height="86" viewBox="0 0 85 86" fill="none" xmlns="http://www.w3.org/2000/svg">
<circle cx="42.4264" cy="43" r="30" transform="rotate(-45 42.4264 43)" fill="#0C3EF1"/>
<path d="M52.6795 32.0398C52.7848 32.1452 52.9418 32.3799 53.0991 32.8044C53.2516 33.2161 53.3831 33.7485 53.475 34.3871C53.6586 35.6635 53.6734 37.2903 53.4328 39.0706C52.9506 42.6398 51.4625 46.6918 48.4368 49.7175C45.4112 52.7432 41.3591 54.2313 37.7899 54.7135C36.0097 54.954 34.3829 54.9393 33.1064 54.7556C32.4679 54.6638 31.9354 54.5322 31.5237 54.3797C31.0992 54.2225 30.8645 54.0655 30.7592 53.9601C30.6538 53.8548 30.4968 53.6201 30.3396 53.1956C30.1871 52.7839 30.0555 52.2514 29.9637 51.6129C29.78 50.3364 29.7653 48.7096 30.0058 46.9294C30.488 43.3602 31.9761 39.3081 35.0018 36.2825C38.0275 33.2568 42.0795 31.7687 45.6487 31.2865C47.429 31.0459 49.0558 31.0607 50.3322 31.2443C50.9708 31.3362 51.5032 31.4677 51.9149 31.6202C52.3394 31.7775 52.5741 31.9345 52.6795 32.0398Z" stroke="white" stroke-width="2"/>
<path d="M38.1838 39.4645L45.2549 46.5355" stroke="white" stroke-width="2"/>
<path d="M38.1838 46.5355L45.2549 39.4645" stroke="white" stroke-width="2"/>
</svg>
