<svg width="137" height="80" viewBox="0 0 137 80" fill="none" xmlns="http://www.w3.org/2000/svg">
<path d="M136.389 40C136.389 41.2235 135.946 42.7679 135.051 44.5565C134.16 46.338 132.838 48.3278 131.123 50.4325C127.692 54.6414 122.716 59.2777 116.555 63.5889C104.231 72.2129 87.218 79.5 68.4444 79.5C49.6709 79.5 32.6579 72.2129 20.3336 63.5889C14.1725 59.2777 9.19642 54.6414 5.76629 50.4325C4.05105 48.3278 2.7289 46.338 1.83772 44.5565C0.943013 42.7679 0.5 41.2235 0.5 40C0.5 38.7765 0.943013 37.2321 1.83772 35.4435C2.7289 33.662 4.05105 31.6722 5.76629 29.5675C9.19642 25.3586 14.1725 20.7223 20.3336 16.4111C32.6579 7.7871 49.6709 0.5 68.4444 0.5C87.218 0.5 104.231 7.7871 116.555 16.4111C122.716 20.7223 127.692 25.3586 131.123 29.5675C132.838 31.6722 134.16 33.662 135.051 35.4435C135.946 37.2321 136.389 38.7765 136.389 40Z" stroke="black"/>
<path d="M83.1029 54.0157C75.3141 61.8045 62.6859 61.8045 54.8972 54.0157C47.1084 46.2269 47.1084 33.5988 54.8971 25.81C62.6859 18.0212 75.3141 18.0212 83.1029 25.81C90.8916 33.5988 90.8916 46.2269 83.1029 54.0157Z" stroke="black"/>
<path d="M86.2474 28.9672C98.2657 28.4108 106.722 29.909 107.309 33.2364C108.172 38.1314 91.6759 45.1317 70.464 48.8719C49.2521 52.6121 31.3568 51.676 30.4937 46.7809C29.907 43.4536 37.3409 39.1535 48.8247 35.5658" stroke="black"/>
</svg>
