<svg width="294" height="82" viewBox="0 0 294 82" fill="none" xmlns="http://www.w3.org/2000/svg">
<path d="M8.83086 35.4334C19.3866 24.4603 30.6581 14.1657 42.6945 4.81503C44.3226 3.55017 45.9703 2.2863 47.7697 1.27882C48.1529 1.06425 49.0565 0.798096 49.0871 1.2357C49.1577 2.24626 48.3606 3.1279 47.964 4.06035C46.1875 8.23801 44.3658 12.113 42.3489 16.2214C38.0956 24.8854 33.7716 34.3384 26.7777 41.212C21.7566 46.1469 13.6599 52.2142 6.23926 52.4675C5.39623 52.4963 0.723739 52.3477 1.01286 50.5269C1.69594 46.2252 11.4319 42.9996 14.23 41.5786C27.0086 35.0892 39.6354 28.3461 52.2402 21.5257C63.4023 15.486 74.5407 8.42976 86.1902 3.30567C87.5362 2.71363 86.4988 3.77856 86.147 4.21129C80.2606 11.4517 88.7866 0.582197 81.6117 9.60184C75.82 16.8826 70.9318 24.8334 65.5869 32.4362C62.3412 37.0532 59.146 42.181 55.2853 46.3439C51.9359 49.9555 60.8084 38.1785 63.8592 34.3121C70.1801 26.3016 77.1231 18.7932 84.1169 11.3699C84.4956 10.9679 88.3676 6.85511 89.5593 5.85001C89.7363 5.70065 89.9607 5.49201 90.1856 5.54814C90.809 5.70376 89.9726 6.82085 89.7536 7.42406C87.8355 12.7069 86.6294 18.0398 85.8878 23.6173C85.5198 26.3856 85.1205 30.3991 84.8944 33.234C84.8199 34.1672 84.761 35.1018 84.7216 36.0371C84.6994 36.5645 84.4303 37.3584 84.8944 37.6112C85.3361 37.8517 85.7834 37.1175 86.147 36.7702C87.6628 35.3227 90.4404 32.3945 91.6325 31.1641C98.4636 24.114 105.321 17.4575 113.445 11.8874C118.158 8.65589 123.441 4.44711 128.822 2.31381C129.034 2.22993 128.74 2.77686 128.606 2.96068C126.128 6.36294 123.457 9.63636 120.939 13.0087C112.032 24.9377 104.42 37.5547 97.2477 50.5916C93.7102 57.0216 90.207 63.5257 87.1188 70.1917C86.0023 72.6018 83.6137 77.2056 83.685 80.2397C83.732 82.2431 90.0473 79.6783 90.7687 79.4634C96.0661 77.8853 101.237 75.6729 105.951 72.7791C112.412 68.8129 117.867 63.2194 122.775 57.5131C126.27 53.4497 128.832 50.189 131.478 45.6107C132.834 43.2662 135.001 39.3636 134.005 36.3821C132.745 32.6061 126.628 30.5242 123.552 29.2235C110.453 23.6833 96.8323 19.8964 82.8859 17.1917C76.0517 15.8664 69.2418 14.8226 62.3258 14.1083C55.0455 13.3564 76.9317 13.0892 84.2465 12.8362C126.695 11.3677 169.183 11.2773 211.645 10.3996C238.773 9.83894 265.885 8.83943 293 7.87686" stroke="black" stroke-linecap="round" stroke-linejoin="round"/>
</svg>
