<svg width="69" height="40" viewBox="0 0 69 40" fill="none" xmlns="http://www.w3.org/2000/svg">
<path d="M68.5 20C68.5 20.5562 68.295 21.2877 67.8526 22.1649C67.4138 23.0351 66.7588 24.0145 65.9025 25.0568C64.1902 27.1409 61.6998 29.4439 58.6101 31.5885C52.4285 35.8793 43.9011 39.5 34.5 39.5C25.0989 39.5 16.5715 35.8793 10.3899 31.5885C7.30022 29.4439 4.80976 27.1409 3.09751 25.0568C2.24121 24.0145 1.58615 23.0351 1.14736 22.1649C0.704977 21.2877 0.5 20.5562 0.5 20C0.5 19.4438 0.704977 18.7123 1.14736 17.8351C1.58615 16.9649 2.24121 15.9855 3.09751 14.9432C4.80976 12.8591 7.30022 10.5561 10.3899 8.41147C16.5715 4.12072 25.0989 0.5 34.5 0.5C43.9011 0.5 52.4285 4.12072 58.6101 8.41147C61.6998 10.5561 64.1902 12.8591 65.9025 14.9432C66.7588 15.9855 67.4138 16.9649 67.8526 17.8351C68.295 18.7123 68.5 19.4438 68.5 20Z" stroke="black"/>
<path d="M53.5 20C53.5 30.7696 44.7696 39.5 34 39.5C23.2305 39.5 14.5 30.7696 14.5 20C14.5 9.23045 23.2305 0.5 34 0.5C44.7696 0.5 53.5 9.23045 53.5 20Z" fill="url(#paint0_angular)" stroke="black"/>
<path d="M34 9L37 12L34 15" stroke="white"/>
<path d="M40.2048 14.7991C41.4309 16.2167 42.1726 18.0649 42.1726 20.0863C42.1726 24.5522 38.5522 28.1726 34.0863 28.1726C29.6204 28.1726 26 24.5522 26 20.0863C26 15.6204 29.6204 12 34.0863 12L36.6847 12" stroke="white"/>
<defs>
<radialGradient id="paint0_angular" cx="0" cy="0" r="1" gradientUnits="userSpaceOnUse" gradientTransform="translate(34 20.0001) rotate(96.0341) scale(93.0153 38.3059)">
<stop stop-color="#FF0000"/>
<stop offset="0.255208" stop-color="#FAFF00"/>
<stop offset="0.505208" stop-color="#00EF18"/>
<stop offset="0.75" stop-color="#0038C6"/>
<stop offset="1" stop-color="#FF0000"/>
</radialGradient>
</defs>
</svg>
