<?xml version="1.0" standalone="no"?>
<!DOCTYPE svg PUBLIC "-//W3C//DTD SVG 1.1//EN" "http://www.w3.org/Graphics/SVG/1.1/DTD/svg11.dtd" >
<svg xmlns="http://www.w3.org/2000/svg">
<metadata>Generated by IcoMoon</metadata>
<defs>
<font id="icomoon" horiz-adv-x="1024">
<font-face units-per-em="1024" ascent="960" descent="-64" />
<missing-glyph horiz-adv-x="1024" />
<glyph unicode="&#x20;" horiz-adv-x="512" d="" />
<glyph unicode="&#xe900;" glyph-name="eye" d="M991.232 481.792c-6.144 13.312-16.384 26.624-28.672 41.984-26.624 31.744-62.464 64.512-104.448 93.184-61.44 41.984-187.392 112.64-346.112 112.64s-284.672-70.656-346.112-112.64c-41.984-28.672-77.824-61.44-104.448-93.184-12.288-15.36-21.504-28.672-28.672-41.984-6.144-13.312-10.24-24.576-10.24-33.792s3.072-20.48 10.24-33.792c6.144-13.312 16.384-26.624 28.672-41.984 26.624-31.744 62.464-64.512 104.448-93.184 61.44-41.984 187.392-112.64 346.112-112.64s284.672 70.656 346.112 112.64c41.984 28.672 77.824 61.44 104.448 93.184 12.288 15.36 21.504 28.672 28.672 41.984 6.144 13.312 10.24 24.576 10.24 33.792-1.024 9.216-4.096 20.48-10.24 33.792zM964.608 427.52c-5.12-11.264-14.336-23.552-24.576-36.864-24.576-29.696-59.392-60.416-98.304-88.064-59.392-38.912-179.2-106.496-329.728-106.496s-270.336 67.584-328.704 107.52c-38.912 26.624-74.752 58.368-98.304 88.064-11.264 13.312-19.456 25.6-25.6 35.84-6.144 12.288-7.168 18.432-7.168 20.48s0 8.192 7.168 20.48c5.12 11.264 14.336 23.552 24.576 36.864 24.576 29.696 59.392 60.416 98.304 88.064 59.392 38.912 179.2 106.496 329.728 106.496s270.336-67.584 328.704-107.52c38.912-26.624 74.752-58.368 98.304-88.064 11.264-13.312 19.456-25.6 24.576-36.864 6.144-12.288 7.168-18.432 7.168-20.48s0-7.168-6.144-19.456zM512 610.816c-90.112 0-162.816-72.704-162.816-162.816s72.704-162.816 162.816-162.816c90.112 0 162.816 72.704 162.816 162.816s-72.704 162.816-162.816 162.816zM512 314.88c-73.728 0-133.12 59.392-133.12 133.12s59.392 133.12 133.12 133.12 133.12-59.392 133.12-133.12-59.392-133.12-133.12-133.12z" />
<glyph unicode="&#xe901;" glyph-name="nav" d="M507.904 936.448c-267.264 0-484.352-217.088-484.352-484.352s217.088-484.352 484.352-484.352c267.264 0 484.352 217.088 484.352 484.352s-217.088 484.352-484.352 484.352zM507.904-10.752c-254.976 0-462.848 207.872-462.848 462.848s207.872 462.848 462.848 462.848 462.848-207.872 462.848-462.848c0-254.976-207.872-462.848-462.848-462.848zM317.44 590.336h388.096v-20.48h-388.096v20.48zM317.44 464.384h388.096v-20.48h-388.096v20.48zM317.44 338.432h388.096v-20.48h-388.096v20.48z" />
<glyph unicode="&#xe902;" glyph-name="twitter" d="M908.288 636.416c1.024-8.192 1.024-16.384 1.024-24.576 0-249.856-203.776-538.624-575.488-538.624-114.688 0-221.184 30.72-310.272 84.992 16.384-2.048 31.744-2.048 49.152-2.048 94.208 0 181.248 29.696 250.88 80.896-89.088 2.048-163.84 56.32-189.44 131.072 12.288-2.048 24.576-3.072 37.888-3.072 18.432 0 35.84 2.048 53.248 6.144-92.16 17.408-161.792 94.208-161.792 185.344v2.048c26.624-14.336 58.368-22.528 91.136-23.552-54.272 33.792-90.112 92.16-90.112 157.696 0 34.816 10.24 67.584 27.648 95.232 99.328-114.688 248.832-189.44 416.768-197.632-3.072 14.336-5.12 28.672-5.12 43.008 0 104.448 90.112 189.44 201.728 189.44 58.368 0 110.592-22.528 147.456-59.392 46.080 8.192 89.088 23.552 128 46.080-15.36-44.032-47.104-80.896-89.088-104.448 40.96 4.096 79.872 14.336 116.736 29.696-26.624-38.912-61.44-71.68-100.352-98.304z" />
<glyph unicode="&#xe903;" glyph-name="iso" d="M985.088 481.792c-6.144 13.312-16.384 27.648-27.648 41.984-26.624 31.744-62.464 64.512-103.424 93.184-60.416 41.984-185.344 112.64-342.016 112.64s-281.6-70.656-342.016-112.64c-41.984-28.672-77.824-61.44-103.424-93.184-12.288-15.36-21.504-28.672-28.672-41.984-6.144-13.312-10.24-24.576-10.24-33.792s3.072-20.48 10.24-33.792c6.144-13.312 16.384-27.648 28.672-41.984 26.624-31.744 62.464-64.512 103.424-93.184 60.416-41.984 185.344-112.64 342.016-112.64s281.6 70.656 342.016 112.64c41.984 28.672 77.824 61.44 103.424 93.184 12.288 15.36 21.504 28.672 27.648 41.984s10.24 24.576 10.24 33.792c-1.024 9.216-4.096 20.48-10.24 33.792zM978.944 417.28c-6.144-12.288-15.36-26.624-27.648-40.96-25.6-31.744-61.44-63.488-102.4-92.16-59.392-41.984-182.272-111.616-337.92-111.616-154.624 0-278.528 69.632-337.92 111.616-40.96 28.672-76.8 60.416-102.4 92.16-12.288 14.336-21.504 28.672-27.648 40.96s-9.216 22.528-9.216 30.72c0 8.192 3.072 18.432 9.216 30.72s15.36 26.624 27.648 40.96c25.6 31.744 61.44 63.488 102.4 92.16 59.392 41.984 183.296 111.616 337.92 111.616s278.528-69.632 337.92-111.616c40.96-28.672 76.8-60.416 102.4-92.16 12.288-14.336 21.504-28.672 27.648-40.96s9.216-22.528 9.216-30.72c0-8.192-3.072-18.432-9.216-30.72zM515.072 593.408c-38.912 0-74.752-15.36-102.4-41.984-56.32-56.32-56.32-147.456 0-203.776 27.648-27.648 63.488-41.984 102.4-41.984s74.752 15.36 102.4 41.984 41.984 63.488 41.984 102.4c0 38.912-15.36 74.752-41.984 102.4-27.648 25.6-63.488 40.96-102.4 40.96zM614.4 353.792l-52.224 53.248c10.24 11.264 16.384 26.624 16.384 41.984 0 16.384-6.144 32.768-18.432 44.032s-27.648 18.432-44.032 18.432c-16.384 0-32.768-6.144-44.032-18.432-12.288-12.288-18.432-27.648-18.432-44.032s6.144-32.768 18.432-44.032c12.288-12.288 27.648-18.432 44.032-18.432 15.36 0 30.72 6.144 41.984 16.384l52.224-52.224c-25.6-24.576-59.392-37.888-94.208-37.888-36.864 0-70.656 14.336-97.28 39.936-53.248 53.248-53.248 140.288 0 194.56 25.6 25.6 60.416 39.936 97.28 39.936s70.656-14.336 97.28-39.936c25.6-25.6 39.936-60.416 39.936-97.28-1.024-36.864-14.336-70.656-38.912-96.256zM555.008 409.088c-10.24-10.24-24.576-16.384-38.912-16.384-15.36 0-28.672 6.144-38.912 16.384s-16.384 24.576-16.384 38.912c0 15.36 6.144 28.672 16.384 38.912s24.576 16.384 38.912 16.384c15.36 0 28.672-6.144 38.912-16.384s16.384-24.576 16.384-38.912c0-14.336-6.144-28.672-16.384-38.912z" />
<glyph unicode="&#xe904;" glyph-name="link" d="M267.264 209.408c9.216-9.216 22.528-14.336 34.816-14.336s24.576 5.12 34.816 14.336l409.6 409.6c19.456 19.456 19.456 50.176 0 68.608s-50.176 19.456-68.608 0l-409.6-409.6c-20.48-18.432-20.48-49.152-1.024-68.608zM503.808 331.264c-26.624-1.024-47.104-24.576-46.080-51.2 1.024-17.408-2.048-35.84-8.192-52.224s-16.384-31.744-28.672-44.032l-88.064-88.064c-35.84-35.84-92.16-47.104-138.24-27.648-15.36 6.144-29.696 15.36-40.96 27.648-12.288 12.288-21.504 25.6-27.648 40.96s-9.216 31.744-9.216 48.128c0 33.792 13.312 66.56 36.864 90.112l88.064 88.064c12.288 12.288 27.648 22.528 44.032 28.672s34.816 9.216 52.224 8.192c27.648-3.072 50.176 19.456 51.2 46.080 2.048 26.624-19.456 50.176-46.080 51.2-31.744 2.048-62.464-3.072-92.16-14.336s-56.32-28.672-78.848-50.176l-88.064-88.064c-41.984-41.984-65.536-99.328-65.536-158.72 0-29.696 6.144-58.368 17.408-86.016s27.648-52.224 49.152-72.704c20.48-20.48 45.056-36.864 72.704-49.152 27.648-11.264 56.32-17.408 86.016-17.408 59.392 0 116.736 23.552 158.72 65.536l88.064 88.064c22.528 22.528 39.936 49.152 51.2 78.848s16.384 60.416 14.336 92.16c-3.072 26.624-26.624 49.152-52.224 46.080zM928.768 871.936c-84.992 84.992-232.448 84.992-317.44 0l-88.064-88.064c-22.528-22.528-38.912-49.152-50.176-78.848-11.264-28.672-16.384-61.44-14.336-92.16 1.024-26.624 24.576-49.152 51.2-46.080 26.624 1.024 47.104 24.576 46.080 51.2-1.024 17.408 2.048 35.84 8.192 52.224s16.384 31.744 28.672 44.032l88.064 88.064c48.128 48.128 131.072 48.128 179.2 0 23.552-23.552 36.864-56.32 36.864-90.112s-13.312-66.56-36.864-90.112l-88.064-88.064c-12.288-12.288-27.648-22.528-44.032-28.672s-33.792-8.192-52.224-8.192c-28.672 3.072-50.176-19.456-51.2-46.080-2.048-26.624 19.456-50.176 46.080-51.2 4.096 0 9.216 0 13.312 0 26.624 0 53.248 5.12 78.848 14.336 29.696 11.264 56.32 28.672 78.848 50.176l88.064 88.064c41.984 41.984 65.536 99.328 65.536 158.72s-24.576 118.784-66.56 160.768z" />
<glyph unicode="&#xe905;" glyph-name="info" d="M512 932.352c-267.264 0-484.352-217.088-484.352-484.352s217.088-484.352 484.352-484.352 484.352 217.088 484.352 484.352-217.088 484.352-484.352 484.352zM512 32.256c-229.376 0-415.744 186.368-415.744 415.744s186.368 415.744 415.744 415.744c229.376 0 415.744-186.368 415.744-415.744s-186.368-415.744-415.744-415.744zM512 665.088c-22.528 0-39.936-17.408-39.936-39.936s18.432-39.936 39.936-39.936c21.504 0 39.936 17.408 39.936 39.936 0 21.504-17.408 39.936-39.936 39.936zM478.208 536.064h67.584v-295.936h-67.584v295.936z" />
<glyph unicode="&#xe906;" glyph-name="add" d="M970.752 542.208c-26.624 36.864-63.488 72.704-106.496 105.472-60.416 45.056-187.392 120.832-352.256 120.832s-291.84-75.776-352.256-120.832c-43.008-31.744-80.896-68.608-106.496-105.472-25.6-35.84-38.912-68.608-38.912-94.208s13.312-59.392 38.912-94.208c26.624-36.864 63.488-72.704 106.496-105.472 60.416-45.056 187.392-120.832 352.256-120.832s291.84 75.776 352.256 120.832c43.008 31.744 80.896 68.608 106.496 105.472 25.6 35.84 38.912 68.608 38.912 94.208s-13.312 59.392-38.912 94.208zM942.080 374.272c-24.576-33.792-58.368-67.584-99.328-97.28-57.344-41.984-176.128-113.664-330.752-113.664s-273.408 70.656-330.752 113.664c-40.96 29.696-74.752 63.488-99.328 97.28-29.696 40.96-32.768 65.536-32.768 73.728s3.072 32.768 32.768 73.728c24.576 33.792 58.368 67.584 99.328 97.28 57.344 41.984 176.128 113.664 330.752 113.664s273.408-70.656 330.752-113.664c40.96-29.696 74.752-63.488 99.328-97.28 29.696-40.96 32.768-65.536 32.768-73.728-1.024-8.192-4.096-32.768-32.768-73.728zM529.408 660.992h-34.816v-195.584h-195.584v-34.816h195.584v-195.584h34.816v195.584h195.584v34.816h-195.584z" />
<glyph unicode="&#xe907;" glyph-name="eye-black" d="M987.136 481.792c-6.144 13.312-16.384 26.624-28.672 41.984-26.624 31.744-62.464 63.488-104.448 92.16-59.392 41.984-184.32 111.616-342.016 111.616s-282.624-69.632-343.040-111.616c-41.984-28.672-77.824-60.416-104.448-92.16-12.288-14.336-21.504-28.672-28.672-41.984-6.144-13.312-10.24-24.576-10.24-33.792s3.072-20.48 10.24-33.792c6.144-13.312 16.384-26.624 28.672-41.984 26.624-31.744 62.464-63.488 104.448-92.16 60.416-41.984 185.344-111.616 343.040-111.616s282.624 69.632 343.040 111.616c41.984 28.672 77.824 60.416 104.448 92.16 12.288 14.336 21.504 28.672 28.672 41.984 6.144 13.312 10.24 24.576 10.24 33.792s-4.096 20.48-11.264 33.792zM961.536 427.52c-5.12-11.264-14.336-23.552-24.576-35.84-24.576-29.696-59.392-60.416-98.304-87.040-58.368-39.936-177.152-106.496-326.656-106.496s-268.288 66.56-326.656 106.496c-38.912 26.624-73.728 57.344-98.304 87.040-10.24 13.312-18.432 25.6-24.576 35.84-6.144 12.288-7.168 18.432-7.168 20.48s0 8.192 7.168 20.48c5.12 11.264 14.336 23.552 24.576 35.84 24.576 29.696 59.392 60.416 98.304 87.040 57.344 39.936 177.152 106.496 326.656 106.496s268.288-66.56 326.656-106.496c38.912-26.624 73.728-57.344 98.304-87.040 10.24-13.312 19.456-25.6 24.576-35.84 6.144-12.288 7.168-18.432 7.168-20.48s-1.024-8.192-7.168-20.48zM673.792 448c0-89.355-72.437-161.792-161.792-161.792s-161.792 72.437-161.792 161.792c0 89.355 72.437 161.792 161.792 161.792s161.792-72.437 161.792-161.792z" />
<glyph unicode="&#xe908;" glyph-name="share" d="M907.264 52.736h-790.528v790.528h217.088v98.304h-315.392v-987.136h987.136v315.392h-98.304zM956.416 941.568h-355.328v-98.304h236.544l-360.448-360.448 69.632-69.632 360.448 360.448v-236.544h98.304v404.48z" />
<glyph unicode="&#xe909;" glyph-name="insta" d="M508.928 694.784c-136.192 0-246.784-110.592-246.784-246.784s110.592-246.784 246.784-246.784c136.192 0 246.784 110.592 246.784 246.784s-109.568 246.784-246.784 246.784zM508.928 287.232c-88.064 0-160.768 71.68-160.768 160.768s71.68 160.768 160.768 160.768c88.064 0 160.768-71.68 160.768-160.768s-72.704-160.768-160.768-160.768zM806.912 745.984c-5.12 5.12-11.264 9.216-18.432 12.288s-14.336 4.096-22.528 4.096c-31.744 0-57.344-25.6-57.344-57.344s25.6-57.344 57.344-57.344c31.744 0 57.344 25.6 57.344 57.344 0 7.168-1.024 15.36-4.096 22.528s-7.168 12.288-12.288 18.432zM990.208 448c0 66.56 1.024 132.096-3.072 198.656-4.096 76.8-21.504 145.408-77.824 201.728s-124.928 73.728-201.728 77.824c-66.56 3.072-132.096 3.072-198.656 3.072s-132.096 0-198.656-3.072c-76.8-4.096-145.408-21.504-201.728-77.824s-73.728-124.928-77.824-201.728c-3.072-66.56-2.048-132.096-2.048-198.656s-1.024-132.096 3.072-198.656c4.096-76.8 21.504-145.408 77.824-201.728s124.928-73.728 201.728-77.824c65.536-3.072 132.096-3.072 197.632-3.072 66.56 0 132.096-1.024 198.656 3.072 76.8 4.096 145.408 21.504 201.728 77.824s73.728 124.928 77.824 201.728c4.096 66.56 3.072 132.096 3.072 198.656zM884.736 164.352c-9.216-21.504-19.456-37.888-35.84-55.296-17.408-17.408-32.768-27.648-55.296-35.84-63.488-25.6-214.016-19.456-283.648-19.456-70.656 0-220.16-6.144-283.648 19.456-21.504 9.216-37.888 19.456-55.296 35.84-17.408 17.408-27.648 32.768-35.84 55.296-24.576 63.488-19.456 214.016-19.456 283.648 0 70.656-6.144 220.16 19.456 283.648 9.216 21.504 19.456 37.888 35.84 55.296 17.408 16.384 32.768 27.648 55.296 35.84 63.488 24.576 214.016 19.456 283.648 19.456 70.656 0 220.16 6.144 283.648-19.456 21.504-9.216 37.888-19.456 55.296-35.84 17.408-17.408 27.648-32.768 35.84-55.296 24.576-63.488 19.456-214.016 19.456-283.648 0-70.656 5.12-220.16-19.456-283.648z" />
<glyph unicode="&#xe90a;" glyph-name="message" d="M13.312 760.32v-623.616h997.376v623.616h-997.376zM512 385.536l-439.296 343.040h878.592l-439.296-343.040zM338.944 480.768l-294.912-305.152v535.552l294.912-230.4zM363.52 461.312l148.48-114.688 148.48 115.712 284.672-293.888h-866.304l284.672 292.864zM685.056 480.768l294.912 230.4v-535.552l-294.912 305.152z" />
<glyph unicode="&#xe90b;" glyph-name="add-circle" d="M518.144 534.016h-12.288v-79.872h-79.872v-12.288h79.872v-79.872h12.288v79.872h79.872v12.288h-79.872zM512 937.472c-269.312 0-489.472-220.16-489.472-489.472s219.136-489.472 489.472-489.472 489.472 220.16 489.472 489.472c0 269.312-220.16 489.472-489.472 489.472zM512-29.184c-263.168 0-477.184 214.016-477.184 477.184s214.016 477.184 477.184 477.184 477.184-214.016 477.184-477.184c0-263.168-214.016-477.184-477.184-477.184z" />
<glyph unicode="&#xe90c;" glyph-name="eye-close" d="M988.16 481.792c-6.144 13.312-16.384 27.648-28.672 41.984-26.624 32.768-62.464 64.512-104.448 94.208-60.416 41.984-186.368 113.664-344.064 113.664s-282.624-71.68-344.064-113.664c-41.984-29.696-77.824-61.44-104.448-94.208-11.264-14.336-20.48-28.672-27.648-41.984-6.144-13.312-10.24-24.576-10.24-33.792s3.072-20.48 10.24-33.792c7.168-13.312 16.384-27.648 28.672-43.008 26.624-32.768 62.464-64.512 104.448-94.208 60.416-41.984 186.368-113.664 344.064-113.664s282.624 71.68 344.064 113.664c41.984 29.696 77.824 61.44 104.448 94.208 12.288 15.36 21.504 29.696 28.672 41.984 6.144 13.312 10.24 24.576 10.24 33.792-2.048 10.24-5.12 21.504-11.264 34.816zM980.992 417.28c-6.144-12.288-15.36-26.624-27.648-40.96-25.6-31.744-61.44-63.488-102.4-93.184-60.416-41.984-184.32-112.64-339.968-112.64s-279.552 70.656-339.968 112.64c-40.96 28.672-76.8 61.44-102.4 93.184-12.288 14.336-21.504 28.672-27.648 40.96s-9.216 22.528-9.216 30.72c0 8.192 3.072 18.432 9.216 30.72s15.36 26.624 27.648 40.96c25.6 31.744 61.44 63.488 102.4 93.184 60.416 41.984 184.32 112.64 339.968 112.64s279.552-70.656 339.968-112.64c40.96-28.672 76.8-61.44 102.4-93.184 12.288-14.336 21.504-28.672 27.648-40.96s9.216-22.528 9.216-30.72c0-8.192-3.072-18.432-9.216-30.72zM412.672 551.424c-56.32-56.32-56.32-148.48 0-205.824 28.672-28.672 65.536-41.984 102.4-41.984s74.752 14.336 102.4 41.984c56.32 56.32 56.32 148.48 0 205.824-56.32 56.32-148.48 56.32-204.8 0zM613.376 350.72c-54.272-54.272-141.312-54.272-195.584 0s-54.272 141.312 0 195.584c26.624 26.624 62.464 39.936 97.28 39.936 35.84 0 70.656-13.312 97.28-39.936 54.272-54.272 54.272-141.312 1.024-195.584zM565.248 498.176l-47.104-48.128-47.104 48.128-5.12-5.12 47.104-47.104-47.104-48.128 5.12-4.096 47.104 47.104 47.104-47.104 5.12 4.096-47.104 48.128 47.104 47.104z" />
<glyph unicode="&#xe90d;" glyph-name="play" d="M80.896 946.688v-997.376l862.208 498.688z" />
<glyph unicode="&#xe90e;" glyph-name="attaching" d="M1007.616 292.352l-415.744 311.296v-259.072h-465.92v570.368h-104.448v-674.816h570.368v-259.072z" />
<glyph unicode="&#xe90f;" glyph-name="eyes-add" d="M508.928 157.184c-161.792 0-289.792 72.704-352.256 116.736-43.008 29.696-79.872 63.488-106.496 96.256-12.288 15.36-22.528 29.696-28.672 43.008-7.168 13.312-10.24 25.6-10.24 34.816s3.072 21.504 10.24 34.816 16.384 27.648 28.672 43.008c26.624 32.768 63.488 66.56 106.496 96.256 62.464 43.008 190.464 116.736 352.256 116.736s289.792-72.704 352.256-116.736c43.008-29.696 79.872-63.488 106.496-96.256 12.288-15.36 22.528-29.696 28.672-43.008 7.168-13.312 10.24-25.6 10.24-34.816s-3.072-21.504-10.24-34.816c-7.168-13.312-16.384-27.648-28.672-43.008-26.624-32.768-63.488-66.56-106.496-96.256-62.464-44.032-190.464-116.736-352.256-116.736zM508.928 724.48c-157.696 0-282.624-71.68-344.064-113.664-41.984-29.696-77.824-61.44-103.424-93.184-12.288-14.336-21.504-28.672-27.648-40.96-7.168-14.336-8.192-23.552-8.192-28.672s1.024-14.336 8.192-28.672c7.168-12.288 16.384-25.6 27.648-39.936 25.6-31.744 62.464-64.512 103.424-93.184 61.44-43.008 186.368-114.688 344.064-114.688s282.624 71.68 344.064 113.664c41.984 29.696 77.824 61.44 103.424 93.184 12.288 14.336 21.504 28.672 27.648 40.96 7.168 14.336 8.192 23.552 8.192 28.672s-1.024 14.336-8.192 28.672c-6.144 12.288-15.36 26.624-27.648 40.96-26.624 31.744-62.464 64.512-103.424 93.184-60.416 41.984-186.368 113.664-344.064 113.664zM513.024 299.52c-37.888 0-75.776 14.336-105.472 43.008-58.368 58.368-58.368 152.576 0 209.92 27.648 27.648 65.536 44.032 105.472 44.032s76.8-15.36 105.472-44.032c58.368-58.368 58.368-152.576 0-209.92v0c-28.672-27.648-67.584-43.008-105.472-43.008zM513.024 583.168c-35.84 0-69.632-14.336-95.232-38.912-52.224-52.224-52.224-137.216 0-189.44s137.216-52.224 189.44 0c52.224 52.224 52.224 137.216 0 189.44-24.576 24.576-58.368 38.912-94.208 38.912zM508.928 437.76v-64.512h14.336v64.512h64.512v14.336h-64.512v64.512h-14.336v-64.512h-64.512v-14.336h64.512z" />
<glyph unicode="&#xe910;" glyph-name="fb" d="M962.56 941.568h-908.288c-21.504 0-39.936-17.408-39.936-39.936v-907.264c0-21.504 17.408-39.936 39.936-39.936h487.424v381.952h-128v149.504h129.024v109.568c0 126.976 77.824 196.608 191.488 196.608 54.272 0 101.376-4.096 114.688-6.144v-133.12h-78.848c-61.44 0-73.728-29.696-73.728-72.704v-95.232h147.456l-19.456-148.48h-129.024v-381.952h266.24c21.504 0 39.936 17.408 39.936 39.936v907.264c0 21.504-17.408 39.936-38.912 39.936z" />
<glyph unicode="&#xe911;" glyph-name="lnk" d="M958.464 937.472h-900.096c-21.504 0-38.912-17.408-38.912-38.912v-901.12c0-21.504 17.408-38.912 38.912-38.912h900.096c21.504 0 38.912 17.408 38.912 38.912v901.12c0 21.504-17.408 38.912-38.912 38.912zM309.248 102.912h-145.408v467.968h145.408v-467.968zM236.544 634.368c-16.384 0-32.768 5.12-47.104 14.336s-24.576 22.528-30.72 37.888c-6.144 15.36-8.192 32.768-5.12 48.128s11.264 31.744 22.528 43.008c11.264 11.264 26.624 19.456 43.008 22.528s32.768 2.048 48.128-5.12c15.36-6.144 28.672-17.408 37.888-30.72 9.216-14.336 14.336-29.696 14.336-47.104 1.024-45.056-35.84-82.944-82.944-82.944zM852.992 102.912h-145.408v227.328c0 54.272-1.024 123.904-75.776 123.904-75.776 0-87.040-59.392-87.040-119.808v-231.424h-144.384v467.968h139.264v-63.488h2.048c19.456 36.864 66.56 75.776 137.216 75.776 147.456 0 174.080-97.28 174.080-222.208v-258.048z" />
<glyph unicode="&#xe912;" glyph-name="eye-ellipse" d="M989.184 481.792c-6.144 13.312-16.384 27.648-28.672 43.008-26.624 32.768-62.464 64.512-104.448 94.208-60.416 41.984-186.368 113.664-344.064 113.664s-283.648-71.68-344.064-113.664c-41.984-29.696-77.824-62.464-104.448-94.208-12.288-15.36-22.528-29.696-28.672-43.008s-10.24-24.576-10.24-33.792c0-9.216 3.072-20.48 10.24-33.792 6.144-13.312 16.384-27.648 28.672-43.008 26.624-32.768 62.464-64.512 104.448-94.208 60.416-43.008 186.368-113.664 344.064-113.664s283.648 71.68 344.064 113.664c41.984 29.696 77.824 62.464 104.448 94.208 12.288 15.36 21.504 29.696 28.672 41.984 6.144 13.312 10.24 24.576 10.24 33.792 0 10.24-3.072 21.504-10.24 34.816zM983.040 417.28c-6.144-12.288-15.36-26.624-27.648-40.96-25.6-31.744-61.44-64.512-103.424-93.184-60.416-41.984-184.32-112.64-339.968-112.64s-280.576 70.656-339.968 112.64c-40.96 28.672-76.8 61.44-103.424 93.184-12.288 14.336-21.504 28.672-27.648 40.96s-9.216 22.528-9.216 30.72c0 8.192 3.072 18.432 9.216 30.72s15.36 26.624 27.648 40.96c25.6 31.744 61.44 64.512 103.424 93.184 60.416 41.984 184.32 112.64 339.968 112.64 156.672 0 280.576-70.656 339.968-112.64 40.96-28.672 76.8-61.44 103.424-93.184 12.288-14.336 21.504-28.672 27.648-40.96s9.216-22.528 9.216-30.72c0-8.192-3.072-18.432-9.216-30.72zM638.976 529.92v-3.072c-5.12 9.216-12.288 17.408-19.456 24.576-56.32 56.32-149.504 56.32-205.824 0-21.504-21.504-34.816-47.104-39.936-74.752l-2.048 6.144c-88.064-27.648-137.216-58.368-133.12-83.968 4.096-23.552 53.248-33.792 119.808-33.792 12.288 0 25.6 0 37.888 1.024 5.12-7.168 10.24-14.336 16.384-20.48 28.672-28.672 65.536-43.008 103.424-43.008 36.864 0 74.752 14.336 103.424 43.008 19.456 19.456 31.744 41.984 37.888 66.56 79.872 25.6 139.264 56.32 135.168 84.992-5.12 24.576-62.464 36.864-153.6 32.768zM417.792 546.304c26.624 26.624 62.464 40.96 98.304 40.96s70.656-13.312 98.304-40.96c34.816-34.816 47.104-83.968 36.864-129.024-36.864-10.24-78.848-20.48-125.952-28.672-46.080-8.192-89.088-13.312-125.952-15.36-34.816 53.248-28.672 125.952 18.432 173.056zM245.76 399.872c-4.096 20.48 46.080 50.176 128 75.776-7.168-34.816 0-71.68 18.432-103.424-88.064-3.072-143.36 8.192-146.432 27.648zM613.376 350.72c-54.272-54.272-141.312-54.272-195.584 0-5.12 5.12-9.216 10.24-13.312 16.384 38.912 2.048 80.896 7.168 122.88 14.336s83.968 17.408 121.856 28.672c-7.168-21.504-18.432-41.984-35.84-59.392zM658.432 420.352c7.168 34.816 1.024 71.68-17.408 103.424 83.968 4.096 140.288-7.168 144.384-27.648 3.072-20.48-44.032-50.176-126.976-75.776z" />
<glyph unicode="&#xe913;" glyph-name="eye-home" d="M996.352 482.816c-7.168 13.312-16.384 27.648-28.672 43.008-26.624 32.768-63.488 65.536-106.496 96.256-61.44 43.008-189.44 115.712-350.208 115.712s-287.744-72.704-350.208-115.712c-43.008-29.696-78.848-62.464-106.496-96.256-12.288-15.36-22.528-29.696-28.672-43.008-7.168-13.312-10.24-24.576-10.24-34.816s3.072-21.504 10.24-34.816c7.168-13.312 16.384-27.648 28.672-43.008 26.624-32.768 63.488-65.536 106.496-96.256 61.44-43.008 189.44-115.712 350.208-115.712s287.744 72.704 350.208 115.712c43.008 29.696 78.848 62.464 106.496 96.256 12.288 15.36 22.528 29.696 28.672 43.008 7.168 13.312 10.24 24.576 10.24 34.816 0 9.216-3.072 21.504-10.24 34.816zM990.208 416.256c-6.144-13.312-15.36-26.624-27.648-41.984-26.624-32.768-62.464-64.512-104.448-94.208-61.44-43.008-187.392-114.688-346.112-114.688s-284.672 71.68-346.112 114.688c-41.984 29.696-77.824 62.464-104.448 94.208-12.288 15.36-21.504 28.672-27.648 41.984-6.144 12.288-9.216 22.528-9.216 31.744 0 8.192 3.072 19.456 9.216 31.744 6.144 13.312 15.36 26.624 27.648 41.984 26.624 32.768 62.464 64.512 104.448 94.208 61.44 43.008 187.392 114.688 346.112 114.688s284.672-71.68 346.112-114.688c41.984-29.696 77.824-62.464 104.448-94.208 12.288-15.36 21.504-28.672 27.648-41.984 6.144-12.288 9.216-22.528 9.216-31.744 0-8.192-3.072-19.456-9.216-31.744zM516.096 596.48c-81.92 0-147.456-66.56-147.456-147.456 0-81.92 66.56-147.456 147.456-147.456 81.92 0 147.456 66.56 147.456 147.456s-66.56 147.456-147.456 147.456zM516.096 307.712c-77.824 0-140.288 63.488-140.288 140.288 0 77.824 63.488 140.288 140.288 140.288s140.288-63.488 140.288-140.288c0-76.8-62.464-140.288-140.288-140.288zM453.632 450.048v-56.32h51.2v31.744h21.504v-31.744h50.176v56.32l-61.44 61.44-61.44-61.44zM569.344 401.92h-35.84v31.744h-35.84v-31.744h-36.864v46.080l54.272 54.272 54.272-54.272v-46.080z" />
<glyph unicode="&#xe914;" glyph-name="elbow" d="M988.16-23.040h-947.2v947.2h111.616v-835.584h835.584z" />
<glyph unicode="&#xe915;" glyph-name="add-black" d="M512 929.28c-266.24 0-481.28-215.040-481.28-481.28s215.040-481.28 481.28-481.28 481.28 215.040 481.28 481.28-215.040 481.28-481.28 481.28zM752.64 416.256h-208.896v-208.896h-64.512v208.896h-207.872v64.512h208.896v207.872h64.512v-208.896h208.896v-63.488z" />
</font>
</defs>
</svg>
